<?xml version="1.0" encoding="UTF-8" standalone="no"?><svg xmlns="http://www.w3.org/2000/svg" xmlns:xlink="http://www.w3.org/1999/xlink" contentScriptType="application/ecmascript" contentStyleType="text/css" height="224px" preserveAspectRatio="none" style="width:655px;height:224px;" version="1.1" viewBox="0 0 655 224" width="655px" zoomAndPan="magnify"><defs><filter height="300%" id="f3i9vhg" width="300%" x="-1" y="-1"><feGaussianBlur result="blurOut" stdDeviation="2.0"/><feColorMatrix in="blurOut" result="blurOut2" type="matrix" values="0 0 0 0 0 0 0 0 0 0 0 0 0 0 0 0 0 0 .4 0"/><feOffset dx="4.0" dy="4.0" in="blurOut2" result="blurOut3"/><feBlend in="SourceGraphic" in2="blurOut3" mode="normal"/></filter></defs><g><!--cluster pytesmo validation framework --><polygon fill="#FFFFFF" filter="url(#f3i9vhg)" points="65,58,320,58,327,80.2969,648,80.2969,648,217,65,217,65,58" style="stroke: #000000; stroke-width: 2.0;"/><line style="stroke: #000000; stroke-width: 2.0;" x1="65" x2="327" y1="80.2969" y2="80.2969"/><text fill="#000000" font-family="sans-serif" font-size="14" font-weight="bold" lengthAdjust="spacingAndGlyphs" textLength="244" x="69" y="72.9951">pytesmo validation framework</text><rect fill="#006699" filter="url(#f3i9vhg)" height="33.9688" rx="12.5" ry="12.5" style="stroke: #000000; stroke-width: 1.5;" width="123" x="81.5" y="93"/><text fill="#FFFFFF" font-family="sans-serif" font-size="12" lengthAdjust="spacingAndGlyphs" textLength="103" x="91.5" y="114.1387">Spatial matching</text><rect fill="#006699" filter="url(#f3i9vhg)" height="33.9688" rx="12.5" ry="12.5" style="stroke: #000000; stroke-width: 1.5;" width="249" x="224.5" y="93"/><text fill="#FFFFFF" font-family="sans-serif" font-size="12" lengthAdjust="spacingAndGlyphs" textLength="229" x="234.5" y="114.1387">Reading spatially matched time series</text><rect fill="#006699" filter="url(#f3i9vhg)" height="33.9688" rx="12.5" ry="12.5" style="stroke: #000000; stroke-width: 1.5;" width="138" x="494" y="93"/><text fill="#FFFFFF" font-family="sans-serif" font-size="12" lengthAdjust="spacingAndGlyphs" textLength="118" x="504" y="114.1387">Temporal matching</text><rect fill="#006699" filter="url(#f3i9vhg)" height="33.9688" rx="12.5" ry="12.5" style="stroke: #000000; stroke-width: 1.5;" width="195" x="437.5" y="167"/><text fill="#FFFFFF" font-family="sans-serif" font-size="12" lengthAdjust="spacingAndGlyphs" textLength="175" x="447.5" y="188.1387">Data space matching/scaling</text><rect fill="#006699" filter="url(#f3i9vhg)" height="33.9688" rx="12.5" ry="12.5" style="stroke: #000000; stroke-width: 1.5;" width="126" x="291" y="167"/><text fill="#FFFFFF" font-family="sans-serif" font-size="12" lengthAdjust="spacingAndGlyphs" textLength="106" x="301" y="188.1387">Metric calculation</text><rect fill="#006699" filter="url(#f3i9vhg)" height="33.9688" rx="12.5" ry="12.5" style="stroke: #000000; stroke-width: 1.5;" width="126" x="145" y="167"/><text fill="#FFFFFF" font-family="sans-serif" font-size="12" lengthAdjust="spacingAndGlyphs" textLength="106" x="155" y="188.1387">Storage of results</text><ellipse cx="16" cy="25" fill="#000000" filter="url(#f3i9vhg)" rx="10" ry="10" style="stroke: none; stroke-width: 1.0;"/><rect fill="#006699" filter="url(#f3i9vhg)" height="33.9688" rx="12.5" ry="12.5" style="stroke: #000000; stroke-width: 1.5;" width="195" x="45.5" y="8"/><text fill="#FFFFFF" font-family="sans-serif" font-size="12" lengthAdjust="spacingAndGlyphs" textLength="175" x="55.5" y="29.1387">n Stored Timeseries Datasets</text><path d="M26.418,25 C30.8913,25 35.3647,25 39.838,25 " fill="none" style="stroke: #000000; stroke-width: 1.0;"/><polygon fill="#000000" points="45.0893,25,36.0893,21,40.0893,25,36.0893,29,45.0893,25" style="stroke: #000000; stroke-width: 1.0;"/><path d="M143,42.003 C143,55.009 143,73.47 143,87.721 " fill="none" style="stroke: #000000; stroke-width: 1.0;"/><polygon fill="#000000" points="143,92.763,147,83.763,143,87.763,139,83.763,143,92.763" style="stroke: #000000; stroke-width: 1.0;"/><path d="M204.559,110 C209.393,110 214.227,110 219.061,110 " fill="none" style="stroke: #000000; stroke-width: 1.0;"/><polygon fill="#000000" points="224.306,110,215.306,106,219.306,110,215.306,114,224.306,110" style="stroke: #000000; stroke-width: 1.0;"/><path d="M473.555,110 C478.621,110 483.687,110 488.753,110 " fill="none" style="stroke: #000000; stroke-width: 1.0;"/><polygon fill="#000000" points="493.82,110,484.82,106,488.82,110,484.82,114,493.82,110" style="stroke: #000000; stroke-width: 1.0;"/><path d="M556.646,127.338 C552.673,137.5562 547.513,150.8231 543.228,161.8415 " fill="none" style="stroke: #000000; stroke-width: 1.0;"/><polygon fill="#000000" points="541.328,166.7267,548.3181,159.7885,543.1403,162.0667,540.8621,156.8889,541.328,166.7267" style="stroke: #000000; stroke-width: 1.0;"/><path d="M422.532,184 C427.372,184 432.212,184 437.053,184 " fill="none" style="stroke: #000000; stroke-width: 1.0;"/><polygon fill="#000000" points="417.279,184,426.279,188,422.279,184,426.279,180,417.279,184" style="stroke: #000000; stroke-width: 1.0;"/><path d="M276.272,184 C281.112,184 285.952,184 290.792,184 " fill="none" style="stroke: #000000; stroke-width: 1.0;"/><polygon fill="#000000" points="271.02,184,280.02,188,276.02,184,280.02,180,271.02,184" style="stroke: #000000; stroke-width: 1.0;"/></g></svg>