<?xml version="1.0" standalone="no"?>
<!DOCTYPE svg PUBLIC "-//W3C//DTD SVG 20010904//EN"
 "http://www.w3.org/TR/2001/REC-SVG-20010904/DTD/svg10.dtd">
<svg version="1.0" xmlns="http://www.w3.org/2000/svg"
 width="320.000000pt" height="320.000000pt" viewBox="0 0 320.000000 320.000000"
 preserveAspectRatio="xMidYMid meet">
<metadata>
Created by potrace 1.11, written by Peter Selinger 2001-2013
</metadata>
<g transform="translate(0.000000,320.000000) scale(0.100000,-0.100000)"
fill="#000000" stroke="none">
<path d="M2107 2799 c-269 -63 -320 -465 -74 -591 64 -32 186 -36 259 -8 69
25 135 86 167 153 35 71 40 184 12 258 -29 75 -87 141 -151 168 -57 25 -155
34 -213 20z m169 -180 c71 -67 51 -234 -33 -274 -71 -34 -159 -3 -185 65 -26
67 -13 172 26 209 46 43 146 44 192 0z"/>
<path d="M1129 2276 c-2 -2 -26 -6 -52 -9 -93 -11 -246 -102 -288 -170 -22
-36 -21 -38 -23 63 l-1 75 -227 2 -228 1 0 -109 c0 -97 2 -109 18 -110 108 -6
128 -10 145 -30 16 -20 17 -68 17 -704 0 -404 -4 -694 -9 -708 -11 -28 -31
-37 -106 -46 l-50 -6 -1 -102 -1 -102 348 0 349 0 0 107 0 108 -82 3 c-46 2
-94 4 -108 4 l-25 2 -2 188 -2 187 22 -15 c45 -29 143 -56 228 -62 275 -19
488 126 579 397 38 112 50 211 45 385 -5 181 -6 195 -29 283 -48 183 -150 304
-293 349 -44 13 -214 28 -224 19z m55 -286 c103 -49 157 -183 159 -395 2 -166
-14 -249 -66 -351 -52 -102 -126 -146 -242 -146 -75 1 -193 32 -219 58 -22 22
-22 651 0 704 54 128 238 194 368 130z"/>
</g>
</svg>
